<svg id="Economy_management" viewBox="0 0 64 64" xmlns="http://www.w3.org/2000/svg" data-name="Economy management">
<path d="m40 46a10.016 10.016 0 0 1 -10 10h16.07a7.022 7.022 0 0 1 5.93-5.93v-8.14a7.022 7.022 0 0 1 -5.93-5.93h-16.07a10.016 10.016 0 0 1 10 10z"/>
<path d="m30 54a8 8 0 1 0 -8-8 8.011 8.011 0 0 0 8 8zm2-7h-4a3.009 3.009 0 0 1 -3-3v-1a3.009 3.009 0 0 1 3-3h1v-1h2v1h1a3.009 3.009 0 0 1 3 3v1h-2v-1a1 1 0 0 0 -1-1h-4a1 1 0 0 0 -1 1v1a1 1 0 0 0 1 1h4a3.009 3.009 0 0 1 3 3v1a3.009 3.009 0 0 1 -3 3h-1v1h-2v-1h-1a3.009 3.009 0 0 1 -3-3h2a1 1 0 0 0 1 1h4a1 1 0 0 0 1-1v-1a1 1 0 0 0 -1-1z"/>
<path d="m13.93 56h16.07a10 10 0 0 1 0-20h-16.07a7.022 7.022 0 0 1 -5.93 5.93v8.14a7.022 7.022 0 0 1 5.93 5.93z"/><path d="m8 18h8v12h-8z"/>
<path d="m4 60h52v-28h-52zm2-19a1 1 0 0 1 1-1 5 5 0 0 0 5-5 1 1 0 0 1 1-1h34a1 1 0 0 1 1 1 5 5 0 0 0 5 5 1 1 0 0 1 1 1v10a1 1 0 0 1 -1 1 5 5 0 0 0 -5 5 1 1 0 0 1 -1 1h-34a1 1 0 0 1 -1-1 5 5 0 0 0 -5-5 1 1 0 0 1 -1-1z"/>
<path d="m14.52 16h.48l-3-6.31-3 6.31h.48z"/><path d="m53 5.41v5.59h5.59z"/><path d="m52 13a1 1 0 0 1 -1-1v-8h-29v26h35a1 1 0 0 1 1 1v24h2v-42zm-26-4h22v2h-22zm0 5h22v2h-22zm30 12h-30v-2h30zm0-5h-30v-2h30z"/>
</svg>